<svg width="18" height="18" viewBox="0 0 18 18" fill="none" xmlns="http://www.w3.org/2000/svg">
<path class="color-primary color-fill" d="M1.80078 4.19995H16.2007" stroke="#4D4D4D" stroke-width="2" stroke-linecap="round" stroke-linejoin="round"/>
<path class="color-primary color-fill" d="M5.80038 4.19999V2.59999C5.80038 2.17565 5.96895 1.76868 6.26901 1.46863C6.56907 1.16857 6.97603 1 7.40038 1H10.6004C11.0247 1 11.4317 1.16857 11.7317 1.46863C12.0318 1.76868 12.2004 2.17565 12.2004 2.59999V4.19999M14.6004 4.19999V15.4C14.6004 15.8243 14.4318 16.2313 14.1317 16.5313C13.8317 16.8314 13.4247 16.9999 13.0004 16.9999H5.00039C4.57604 16.9999 4.16908 16.8314 3.86902 16.5313C3.56896 16.2313 3.40039 15.8243 3.40039 15.4V4.19999H14.6004Z" stroke="#4D4D4D" stroke-width="2" stroke-linecap="round" stroke-linejoin="round"/>
<path class="color-primary color-fill" d="M7.40039 8.19995V12.9999" stroke="#4D4D4D" stroke-width="2" stroke-linecap="round" stroke-linejoin="round"/>
<path class="color-primary color-fill" d="M10.5996 8.19995V12.9999" stroke="#4D4D4D" stroke-width="2" stroke-linecap="round" stroke-linejoin="round"/>
</svg>
