<svg width="20" height="17" viewBox="0 0 20 17" fill="none" xmlns="http://www.w3.org/2000/svg">
<path class="color-primary color-fill" d="M8.92863 12.7166C8.92863 12.9864 9.04151 13.2452 9.24243 13.436C9.44335 13.6268 9.71586 13.734 10 13.734C10.2841 13.734 10.5567 13.6268 10.7576 13.436C10.9585 13.2452 11.0714 12.9864 11.0714 12.7166C11.0714 12.4468 10.9585 12.1881 10.7576 11.9973C10.5567 11.8065 10.2841 11.6993 10 11.6993C9.71586 11.6993 9.44335 11.8065 9.24243 11.9973C9.04151 12.1881 8.92863 12.4468 8.92863 12.7166ZM9.28575 6.27354V10.1733C9.28575 10.2666 9.36611 10.3429 9.46432 10.3429H10.5357C10.6339 10.3429 10.7142 10.2666 10.7142 10.1733V6.27354C10.7142 6.18028 10.6339 6.10398 10.5357 6.10398H9.46432C9.36611 6.10398 9.28575 6.18028 9.28575 6.27354ZM19.9035 15.5991L10.6183 0.33911C10.4799 0.11233 10.2411 0 10 0C9.75894 0 9.51788 0.11233 9.38173 0.33911L0.0965423 15.5991C-0.177996 16.0526 0.165735 16.6164 0.714811 16.6164H19.2852C19.8343 16.6164 20.178 16.0526 19.9035 15.5991ZM2.41561 15.0077L10 2.54121L17.5844 15.0077H2.41561Z"/>
</svg>
