<svg width="20" height="19" viewBox="0 0 20 19" fill="none" xmlns="http://www.w3.org/2000/svg">
<path class="color-primary color-fill" d="M10 0C4.48615 0 0 4.14131 0 9.23132C0 14.3213 4.48615 18.4626 10 18.4626C15.5138 18.4626 20 14.3213 20 9.23132C20 4.14131 15.5138 0 10 0ZM10 1.4202C14.6823 1.4202 18.4615 4.90893 18.4615 9.23132C18.4615 13.5537 14.6823 17.0424 10 17.0424C5.31769 17.0424 1.53846 13.5537 1.53846 9.23132C1.53846 4.90893 5.31769 1.4202 10 1.4202ZM9.23077 4.97071V6.39092H10.7692V4.97071H9.23077ZM9.23077 7.81112V13.4919H10.7692V7.81112H9.23077Z"/>
</svg>
