<svg width="26" height="26" viewBox="0 0 26 26" fill="none" xmlns="http://www.w3.org/2000/svg">
<path class="color-primary color-fill" d="M13.13 18.2325C13.13 18.3755 13.2405 18.4925 13.3737 18.4925H19.3862C19.5195 18.4925 19.63 18.3755 19.63 18.2325V16.6725C19.63 16.5295 19.5195 16.4125 19.3862 16.4125H13.3737C13.2405 16.4125 13.13 16.5295 13.13 16.6725V18.2325ZM6.79575 18.4307L13.0357 13.1982C13.1592 13.0942 13.1592 12.9025 13.0357 12.7985L6.79575 7.56925C6.75808 7.53722 6.71201 7.51667 6.66301 7.51004C6.61401 7.50341 6.56413 7.51098 6.5193 7.53185C6.47448 7.55273 6.43658 7.58602 6.41012 7.62779C6.38365 7.66956 6.36973 7.71805 6.37 7.7675V9.80525C6.37 9.88325 6.4025 9.95475 6.46425 10.0035L10.0328 13L6.46425 15.9965C6.4352 16.0208 6.41174 16.0511 6.39547 16.0853C6.37921 16.1195 6.37052 16.1569 6.37 16.1947V18.2325C6.37 18.4535 6.62675 18.5737 6.79575 18.4307ZM24.96 0H1.04C0.46475 0 0 0.46475 0 1.04V24.96C0 25.5352 0.46475 26 1.04 26H24.96C25.5352 26 26 25.5352 26 24.96V1.04C26 0.46475 25.5352 0 24.96 0ZM23.66 23.66H2.34V2.34H23.66V23.66Z" fill="black"/>
</svg>
