<svg width="20" height="20" viewBox="0 0 20 20" fill="none" xmlns="http://www.w3.org/2000/svg">
<path class="color-primary color-fill" d="M18.7383 4.9881L15.012 1.26185C14.8402 1.08998 14.6293 0.963938 14.4002 0.895188V0.833313H1.56683C1.1612 0.833313 0.833496 1.16102 0.833496 1.56665V18.4333C0.833496 18.8389 1.1612 19.1666 1.56683 19.1666H18.4335C18.8391 19.1666 19.1668 18.8389 19.1668 18.4333V6.02394C19.1668 5.63435 19.0133 5.2631 18.7383 4.9881ZM7.06683 2.48331H12.9335V4.86665H7.06683V2.48331ZM17.5168 17.5166H2.4835V2.48331H5.60016V5.59998C5.60016 6.0056 5.92787 6.33331 6.3335 6.33331H13.6668C14.0725 6.33331 14.4002 6.0056 14.4002 5.59998V2.9829L17.5168 6.09956V17.5166ZM10.0002 8.39581C8.17829 8.39581 6.70016 9.87394 6.70016 11.6958C6.70016 13.5177 8.17829 14.9958 10.0002 14.9958C11.822 14.9958 13.3002 13.5177 13.3002 11.6958C13.3002 9.87394 11.822 8.39581 10.0002 8.39581ZM10.0002 13.5291C8.98725 13.5291 8.16683 12.7087 8.16683 11.6958C8.16683 10.6829 8.98725 9.86248 10.0002 9.86248C11.0131 9.86248 11.8335 10.6829 11.8335 11.6958C11.8335 12.7087 11.0131 13.5291 10.0002 13.5291Z"/>
</svg>
