<svg width="48" height="45" viewBox="0 0 48 45" fill="none" xmlns="http://www.w3.org/2000/svg">
<path class="color-primary color-fill" d="M10.08 35.4485H14.88C15.144 35.4485 15.36 35.2491 15.36 35.0054V9.30523C15.36 9.06152 15.144 8.86212 14.88 8.86212H10.08C9.816 8.86212 9.6 9.06152 9.6 9.30523V35.0054C9.6 35.2491 9.816 35.4485 10.08 35.4485ZM21.6 19.9398H26.4C26.664 19.9398 26.88 19.7404 26.88 19.4967V9.30523C26.88 9.06152 26.664 8.86212 26.4 8.86212H21.6C21.336 8.86212 21.12 9.06152 21.12 9.30523V19.4967C21.12 19.7404 21.336 19.9398 21.6 19.9398ZM33.12 23.9277H37.92C38.184 23.9277 38.4 23.7283 38.4 23.4846V9.30523C38.4 9.06152 38.184 8.86212 37.92 8.86212H33.12C32.856 8.86212 32.64 9.06152 32.64 9.30523V23.4846C32.64 23.7283 32.856 23.9277 33.12 23.9277ZM46.08 0H1.92C0.858 0 0 0.792052 0 1.77242V42.5382C0 43.5186 0.858 44.3106 1.92 44.3106H46.08C47.142 44.3106 48 43.5186 48 42.5382V1.77242C48 0.792052 47.142 0 46.08 0ZM43.68 40.3227H4.32V3.98795H43.68V40.3227Z" fill="black"/>
</svg>
