<svg width="48" height="45" viewBox="0 0 48 45" fill="none" xmlns="http://www.w3.org/2000/svg">
<path class="color-primary color-fill" d="M42.972 33.4906H39.1287C38.8663 33.4906 38.6203 33.5988 38.4562 33.7894C38.0736 34.2274 37.6635 34.6499 37.2316 35.0518C35.4652 36.7182 33.3729 38.0462 31.0703 38.9624C28.6848 39.912 26.1208 40.3991 23.5313 40.3948C20.9126 40.3948 18.3759 39.9105 15.9923 38.9624C13.6897 38.0462 11.5974 36.7182 9.83092 35.0518C8.06133 33.391 6.6503 31.4225 5.67599 29.2553C4.66459 27.0089 4.15615 24.6233 4.15615 22.1553C4.15615 19.6873 4.67005 17.3018 5.67599 15.0554C6.64912 12.8862 8.04867 10.9334 9.83092 9.25892C11.6132 7.58439 13.6852 6.26538 15.9923 5.34826C18.3759 4.40022 20.9126 3.91589 23.5313 3.91589C26.15 3.91589 28.6867 4.39506 31.0703 5.34826C33.3774 6.26538 35.4494 7.58439 37.2316 9.25892C37.6635 9.66596 38.0681 10.0885 38.4562 10.5213C38.6203 10.7119 38.8717 10.8201 39.1287 10.8201H42.972C43.3164 10.8201 43.5296 10.4594 43.3383 10.1863C39.1451 4.0447 31.8084 -0.0205315 23.4711 7.80003e-05C10.3722 0.0309923 -0.129992 10.0524 0.00121616 22.382C0.132425 34.5159 10.6182 44.3106 23.5313 44.3106C31.8466 44.3106 39.1506 40.2505 43.3383 34.1243C43.5242 33.8513 43.3164 33.4906 42.972 33.4906ZM47.8322 21.8307L40.0745 16.0601C39.7847 15.8437 39.3638 16.0395 39.3638 16.3847V20.3005H22.1973C21.9568 20.3005 21.76 20.486 21.76 20.7127V23.598C21.76 23.8247 21.9568 24.0102 22.1973 24.0102H39.3638V27.926C39.3638 28.2712 39.7902 28.467 40.0745 28.2506L47.8322 22.4799C47.8845 22.4414 47.9267 22.3921 47.9558 22.3359C47.9849 22.2796 48 22.2179 48 22.1553C48 22.0928 47.9849 22.031 47.9558 21.9748C47.9267 21.9186 47.8845 21.8693 47.8322 21.8307Z"/>
</svg>
